<?xml version="1.0" encoding="utf-8"?>
<svg viewBox="-7.703 10.504 1009.105 313.024" width="1009.105px" height="313.024px" xmlns="http://www.w3.org/2000/svg" xmlns:bx="https://boxy-svg.com"><defs><bx:export><bx:file format="svg" path="Sin título.svg"/></bx:export></defs><g style="" transform="matrix(2.736742, 0, 0, 2.736742, -237.175293, -273.190002)"><g transform="matrix(0.037611, 0, 0, -0.037611, 80.695938, 253.223831)" fill="#6133eb" stroke="none" style=""><path d="M1435 3935 c-318 -56 -572 -191 -811 -429 -234 -235 -389 -531 -458&#10;-876 -117 -584 -1 -1131 303 -1429 107 -106 263 -186 419 -218 93 -18 303 -21&#10;387 -4 288 58 532 223 729 491 95 129 184 342 221 528 18 90 17 107 -13 114&#10;-16 4 -37 -16 -100 -96 -199 -249 -426 -422 -623 -472 -98 -25 -222 -15 -302&#10;24 -172 85 -293 294 -326 567 -16 127 -14 352 4 470 43 286 159 547 311 701&#10;95 95 160 127 269 132 72 3 86 0 135 -25 64 -33 86 -66 101 -152 14 -78 -1&#10;-194 -45 -347 l-33 -115 54 5 c29 4 79 9 111 12 96 9 183 34 272 77 67 33 102&#10;58 165 122 86 86 124 148 150 250 58 227 -54 466 -273 583 -131 69 -231 93&#10;-412 98 -105 2 -181 -1 -235 -11z"/><path d="M4676 3931 c-9 -10 -43 -32 -74 -49 -151 -80 -411 -82 -962 -7 -382&#10;52 -622 63 -745 36 -175 -39 -269 -134 -315 -319 -19 -77 -45 -319 -38 -360&#10;l3 -22 39 26 c52 35 141 71 229 91 87 20 508 26 527 7 8 -8 2 -65 -19 -205&#10;-130 -846 -222 -1685 -209 -1913 4 -60 11 -91 27 -117 40 -67 141 -116 258&#10;-126 111 -10 273 44 356 117 l34 29 6 213 c15 463 54 927 118 1378 22 158 80&#10;524 83 527 1 2 72 -6 157 -17 173 -23 340 -27 414 -10 73 16 161 67 210 122&#10;77 86 116 229 96 351 -20 122 -67 204 -138 244 -39 22 -41 22 -57 4z"/></g><text style="fill: rgb(97, 51, 235); font-family: &quot;Bookman Old Style&quot;; font-size: 53.2px; font-weight: 600; letter-spacing: 2.2px; text-transform: uppercase; white-space: pre;" x="253.244" y="179.288">Admin</text></g></svg>